# xmcd
#
# Track frame offsets:
#	150
#	17366
#	38647
#	57337
#	80610
#	95080
#	114209
#	136829
#	156880
#	177133
#	198791
#	221627
#	240555
#	256973
#	275258
#	296145
#
# Disc length: 4259 seconds
#
# Revision: 1
# Processed by: cddbd v1.5.2PL0 Copyright (c) Steve Scherf et al.
# Submitted via: audiograbber 1.83.01
#
DISCID=d610a110
DTITLE=John Schumann - Behind The Lines
DYEAR=2008
DGENRE=Country
TTITLE0=Boy On The Run
TTITLE1=Band Playing Waltzing Matilda
TTITLE2=Scots Of The Riverina
TTITLE3=No Mans Land
TTITLE4=To An Old Mate
TTITLE5=Old Ted
TTITLE6=Mothers, Daughters, Wives
TTITLE7=Khe Sahn
TTITLE8=My Country
TTITLE9=I Was Only 19
TTITLE10=Rachel
TTITLE11=Wings Of An Eagle
TTITLE12=Safe Behind The Wire
TTITLE13=When The War Is Over
TTITLE14=I'll Be Gone
TTITLE15=Waltzing Matilda
EXTD=
EXTT0=
EXTT1=
EXTT2=
EXTT3=
EXTT4=
EXTT5=
EXTT6=
EXTT7=
EXTT8=
EXTT9=
EXTT10=
EXTT11=
EXTT12=
EXTT13=
EXTT14=
EXTT15=
PLAYORDER=
